<svg width="824" height="156" viewBox="0 0 824 156" fill="none" xmlns="http://www.w3.org/2000/svg">
<path d="M214.391 38V118H195.055V38H214.391ZM294.615 38V118H278.209L246.373 71.8281H245.865V118H226.529V38H243.17L274.654 84.0937H275.318V38H294.615ZM359.273 64.1328C358.831 62.4922 358.18 61.0469 357.32 59.7969C356.461 58.5208 355.406 57.4401 354.156 56.5547C352.906 55.6693 351.474 55.0052 349.859 54.5625C348.245 54.0937 346.474 53.8594 344.547 53.8594C340.667 53.8594 337.307 54.7969 334.469 56.6719C331.656 58.5469 329.482 61.2812 327.945 64.875C326.409 68.4427 325.641 72.7786 325.641 77.8828C325.641 83.013 326.383 87.388 327.867 91.0078C329.352 94.6276 331.5 97.388 334.313 99.2891C337.125 101.19 340.536 102.141 344.547 102.141C348.089 102.141 351.083 101.568 353.531 100.422C356.005 99.25 357.88 97.5964 359.156 95.4609C360.432 93.3255 361.07 90.8125 361.07 87.9219L364.664 88.3516H345.211V74.25H379.703V84.8359C379.703 91.9974 378.18 98.1302 375.133 103.234C372.112 108.339 367.945 112.258 362.633 114.992C357.346 117.727 351.266 119.094 344.391 119.094C336.76 119.094 330.055 117.44 324.273 114.133C318.492 110.826 313.987 106.112 310.758 99.9922C307.529 93.8464 305.914 86.5547 305.914 78.1172C305.914 71.5547 306.891 65.7344 308.844 60.6563C310.797 55.5521 313.518 51.2292 317.008 47.6875C320.523 44.1458 324.586 41.4635 329.195 39.6406C333.831 37.8177 338.818 36.9062 344.156 36.9062C348.792 36.9062 353.102 37.5703 357.086 38.8984C361.096 40.2266 364.638 42.1016 367.711 44.5234C370.81 46.9453 373.323 49.8229 375.25 53.1563C377.177 56.4896 378.375 60.1484 378.844 64.1328H359.273ZM391.1 118V38H424.146C430.136 38 435.305 39.0807 439.654 41.2422C444.029 43.3776 447.402 46.4505 449.771 50.4609C452.141 54.4453 453.326 59.1719 453.326 64.6406C453.326 70.1875 452.115 74.901 449.693 78.7812C447.271 82.6354 443.834 85.5781 439.381 87.6094C434.928 89.6146 429.654 90.6172 423.561 90.6172H402.662V75.3828H419.967C422.883 75.3828 425.318 75.0052 427.271 74.25C429.251 73.4687 430.748 72.2969 431.764 70.7344C432.779 69.1458 433.287 67.1146 433.287 64.6406C433.287 62.1667 432.779 60.1224 431.764 58.5078C430.748 56.8672 429.251 55.6432 427.271 54.8359C425.292 54.0026 422.857 53.5859 419.967 53.5859H410.436V118H391.1ZM436.139 81.4375L456.061 118H434.967L415.436 81.4375H436.139ZM463.932 118V38H519.713V53.7031H483.268V70.1094H516.861V85.8516H483.268V102.297H519.713V118H463.932ZM575.064 61.9844C574.804 59.1198 573.645 56.8932 571.588 55.3047C569.557 53.6901 566.653 52.8828 562.877 52.8828C560.377 52.8828 558.294 53.2083 556.627 53.8594C554.96 54.5104 553.71 55.4089 552.877 56.5547C552.044 57.6745 551.614 58.9635 551.588 60.4219C551.536 61.6198 551.77 62.6745 552.291 63.5859C552.838 64.4974 553.619 65.3047 554.635 66.0078C555.676 66.6849 556.926 67.2839 558.385 67.8047C559.843 68.3255 561.484 68.7812 563.307 69.1719L570.182 70.7344C574.14 71.5938 577.63 72.7396 580.65 74.1719C583.697 75.6042 586.249 77.3099 588.307 79.2891C590.39 81.2682 591.965 83.5469 593.033 86.125C594.101 88.7031 594.648 91.5937 594.674 94.7969C594.648 99.849 593.372 104.185 590.846 107.805C588.32 111.424 584.687 114.198 579.947 116.125C575.234 118.052 569.544 119.016 562.877 119.016C556.184 119.016 550.351 118.013 545.377 116.008C540.403 114.003 536.536 110.956 533.775 106.867C531.015 102.779 529.596 97.6094 529.518 91.3594H548.033C548.189 93.9375 548.88 96.0859 550.104 97.8047C551.327 99.5234 553.007 100.826 555.143 101.711C557.304 102.596 559.804 103.039 562.643 103.039C565.247 103.039 567.46 102.687 569.283 101.984C571.132 101.281 572.551 100.305 573.541 99.0547C574.531 97.8047 575.038 96.3724 575.064 94.7578C575.038 93.2474 574.57 91.9583 573.658 90.8906C572.747 89.7969 571.34 88.8594 569.439 88.0781C567.564 87.2708 565.169 86.5286 562.252 85.8516L553.893 83.8984C546.965 82.3099 541.51 79.7448 537.525 76.2031C533.541 72.6354 531.562 67.8177 531.588 61.75C531.562 56.8021 532.89 52.4661 535.572 48.7422C538.255 45.0182 541.965 42.1146 546.705 40.0313C551.445 37.9479 556.848 36.9062 562.916 36.9062C569.114 36.9062 574.492 37.9609 579.049 40.0703C583.632 42.1536 587.187 45.0833 589.713 48.8594C592.239 52.6354 593.528 57.0104 593.58 61.9844H575.064ZM647.682 61.9844C647.421 59.1198 646.262 56.8932 644.205 55.3047C642.174 53.6901 639.27 52.8828 635.494 52.8828C632.994 52.8828 630.911 53.2083 629.244 53.8594C627.577 54.5104 626.327 55.4089 625.494 56.5547C624.661 57.6745 624.231 58.9635 624.205 60.4219C624.153 61.6198 624.387 62.6745 624.908 63.5859C625.455 64.4974 626.236 65.3047 627.252 66.0078C628.294 66.6849 629.544 67.2839 631.002 67.8047C632.46 68.3255 634.101 68.7812 635.924 69.1719L642.799 70.7344C646.757 71.5938 650.247 72.7396 653.268 74.1719C656.314 75.6042 658.867 77.3099 660.924 79.2891C663.007 81.2682 664.583 83.5469 665.65 86.125C666.718 88.7031 667.265 91.5937 667.291 94.7969C667.265 99.849 665.989 104.185 663.463 107.805C660.937 111.424 657.304 114.198 652.564 116.125C647.851 118.052 642.161 119.016 635.494 119.016C628.801 119.016 622.968 118.013 617.994 116.008C613.02 114.003 609.153 110.956 606.393 106.867C603.632 102.779 602.213 97.6094 602.135 91.3594H620.65C620.807 93.9375 621.497 96.0859 622.721 97.8047C623.945 99.5234 625.624 100.826 627.76 101.711C629.921 102.596 632.421 103.039 635.26 103.039C637.864 103.039 640.077 102.687 641.9 101.984C643.749 101.281 645.169 100.305 646.158 99.0547C647.148 97.8047 647.656 96.3724 647.682 94.7578C647.656 93.2474 647.187 91.9583 646.275 90.8906C645.364 89.7969 643.958 88.8594 642.057 88.0781C640.182 87.2708 637.786 86.5286 634.869 85.8516L626.51 83.8984C619.583 82.3099 614.127 79.7448 610.143 76.2031C606.158 72.6354 604.179 67.8177 604.205 61.75C604.179 56.8021 605.507 52.4661 608.189 48.7422C610.872 45.0182 614.583 42.1146 619.322 40.0313C624.062 37.9479 629.465 36.9062 635.533 36.9062C641.731 36.9062 647.109 37.9609 651.666 40.0703C656.249 42.1536 659.804 45.0833 662.33 48.8594C664.856 52.6354 666.145 57.0104 666.197 61.9844H647.682ZM725.455 38H744.752V89.6016C744.752 95.5651 743.333 100.76 740.494 105.187C737.656 109.589 733.697 113 728.619 115.422C723.541 117.818 717.643 119.016 710.924 119.016C704.127 119.016 698.189 117.818 693.111 115.422C688.033 113 684.088 109.589 681.275 105.187C678.463 100.76 677.057 95.5651 677.057 89.6016V38H696.393V87.9219C696.393 90.6823 696.992 93.1432 698.189 95.3047C699.413 97.4661 701.119 99.1589 703.307 100.383C705.494 101.607 708.033 102.219 710.924 102.219C713.814 102.219 716.34 101.607 718.502 100.383C720.689 99.1589 722.395 97.4661 723.619 95.3047C724.843 93.1432 725.455 90.6823 725.455 87.9219V38ZM800.113 61.9844C799.853 59.1198 798.694 56.8932 796.637 55.3047C794.605 53.6901 791.702 52.8828 787.926 52.8828C785.426 52.8828 783.342 53.2083 781.676 53.8594C780.009 54.5104 778.759 55.4089 777.926 56.5547C777.092 57.6745 776.663 58.9635 776.637 60.4219C776.585 61.6198 776.819 62.6745 777.34 63.5859C777.887 64.4974 778.668 65.3047 779.684 66.0078C780.725 66.6849 781.975 67.2839 783.434 67.8047C784.892 68.3255 786.533 68.7812 788.355 69.1719L795.23 70.7344C799.189 71.5938 802.678 72.7396 805.699 74.1719C808.746 75.6042 811.298 77.3099 813.355 79.2891C815.439 81.2682 817.014 83.5469 818.082 86.125C819.15 88.7031 819.697 91.5937 819.723 94.7969C819.697 99.849 818.421 104.185 815.895 107.805C813.368 111.424 809.736 114.198 804.996 116.125C800.283 118.052 794.592 119.016 787.926 119.016C781.233 119.016 775.4 118.013 770.426 116.008C765.452 114.003 761.585 110.956 758.824 106.867C756.064 102.779 754.645 97.6094 754.566 91.3594H773.082C773.238 93.9375 773.928 96.0859 775.152 97.8047C776.376 99.5234 778.056 100.826 780.191 101.711C782.353 102.596 784.853 103.039 787.691 103.039C790.296 103.039 792.509 102.687 794.332 101.984C796.181 101.281 797.6 100.305 798.59 99.0547C799.579 97.8047 800.087 96.3724 800.113 94.7578C800.087 93.2474 799.618 91.9583 798.707 90.8906C797.796 89.7969 796.389 88.8594 794.488 88.0781C792.613 87.2708 790.217 86.5286 787.301 85.8516L778.941 83.8984C772.014 82.3099 766.559 79.7448 762.574 76.2031C758.59 72.6354 756.611 67.8177 756.637 61.75C756.611 56.8021 757.939 52.4661 760.621 48.7422C763.303 45.0182 767.014 42.1146 771.754 40.0313C776.493 37.9479 781.897 36.9062 787.965 36.9062C794.163 36.9062 799.54 37.9609 804.098 40.0703C808.681 42.1536 812.236 45.0833 814.762 48.8594C817.288 52.6354 818.577 57.0104 818.629 61.9844H800.113Z" fill="#232559"/>
<path d="M14.7017 50.2304V43.0546C14.7017 19.2741 34.0071 0 57.8263 0H115.326C139.145 0 158.45 19.2741 158.45 43.0546V50.2304C142.573 50.2304 129.701 63.0822 129.701 78.9334V100.461H43.4514V78.9334C43.4514 63.0822 30.5787 50.2304 14.7017 50.2304Z" fill="#F2531B"/>
<path d="M155.561 63.0865C148.503 64.2324 143.613 70.843 143.613 77.9836V105.866C143.613 109.819 140.396 113.028 136.432 113.028H35.9031C31.9394 113.028 28.7225 109.819 28.7225 105.866V77.9836C28.7225 70.8502 23.8325 64.2324 16.7739 63.0865C7.77662 61.6254 0 68.5153 0 77.2172V105.866C0 117.583 5.64397 127.982 14.3613 134.514V148.838C14.3613 152.791 17.5782 156 21.5419 156C25.5056 156 28.7225 152.791 28.7225 148.838V140.96C31.0419 141.432 33.4474 141.676 35.9031 141.676H136.432C138.888 141.676 141.293 141.432 143.613 140.96V148.838C143.613 152.791 146.829 156 150.793 156C154.757 156 157.974 152.791 157.974 148.838V134.514C166.691 127.982 172.335 117.583 172.335 105.866V77.2172C172.335 68.5153 164.558 61.6326 155.561 63.0865Z" fill="#232559"/>
</svg>
