<svg width="1061" height="156" viewBox="0 0 1061 156" fill="none" xmlns="http://www.w3.org/2000/svg">
<path d="M243.125 23.4772V131.523H217V23.4772H243.125Z" fill="#232559"/>
<path d="M351.518 23.4772V131.523H329.351L286.337 69.1644H285.651V131.523H259.526V23.4772H282.009L324.548 85.73H325.446V23.4772H351.518Z" fill="#232559"/>
<path d="M438.879 58.7714C438.281 56.5556 437.401 54.6036 436.24 52.9154C435.079 51.192 433.654 49.7324 431.965 48.5366C430.276 47.3408 428.341 46.4439 426.159 45.846C423.978 45.2129 421.585 44.8964 418.982 44.8964C413.739 44.8964 409.2 46.1625 405.365 48.6949C401.565 51.2272 398.627 54.9202 396.551 59.7738C394.475 64.5922 393.437 70.4482 393.437 77.3417C393.437 84.2704 394.44 90.1792 396.445 95.068C398.451 99.9568 401.354 103.685 405.154 106.252C408.954 108.82 413.563 110.104 418.982 110.104C423.767 110.104 427.813 109.33 431.12 107.782C434.463 106.2 436.996 103.966 438.721 101.082C440.445 98.1982 441.307 94.8042 441.307 90.9002L446.162 91.4805H419.879V72.4354H466.482V86.7324C466.482 96.4045 464.423 104.687 460.307 111.581C456.225 118.474 450.596 123.768 443.418 127.461C436.275 131.154 428.059 133 418.77 133C408.461 133 399.401 130.767 391.59 126.3C383.779 121.833 377.692 115.467 373.329 107.202C368.966 98.9016 366.784 89.0537 366.784 77.6583C366.784 68.7952 368.104 60.9344 370.742 54.0761C373.381 47.1825 377.058 41.3441 381.773 36.5608C386.523 31.7776 392.012 28.1549 398.24 25.693C404.503 23.231 411.241 22 418.454 22C424.717 22 430.54 22.8969 435.923 24.6906C441.342 26.4843 446.127 29.0166 450.279 32.2876C454.466 35.5585 457.861 39.4449 460.465 43.9468C463.069 48.4487 464.687 53.3902 465.321 58.7714H438.879Z" fill="#232559"/>
<path d="M481.88 131.523V23.4772H526.53C534.623 23.4772 541.607 24.9368 547.483 27.856C553.394 30.74 557.951 34.8902 561.152 40.3066C564.354 45.6877 565.955 52.0713 565.955 59.4572C565.955 66.9487 564.319 73.3146 561.047 78.5551C557.775 83.7605 553.13 87.7348 547.113 90.4781C541.097 93.1863 533.972 94.5404 525.738 94.5404H497.502V73.9653H520.883C524.824 73.9653 528.113 73.4553 530.752 72.4354C533.426 71.3802 535.449 69.7975 536.822 67.6873C538.194 65.5418 538.88 62.7985 538.88 59.4572C538.88 56.116 538.194 53.355 536.822 51.1744C535.449 48.9587 533.426 47.3056 530.752 46.2153C528.078 45.0898 524.788 44.5271 520.883 44.5271H508.005V131.523H481.88ZM542.733 82.1426L569.65 131.523H541.15L514.76 82.1426H542.733Z" fill="#232559"/>
<path d="M580.284 131.523V23.4772H655.651V44.6854H606.41V66.8432H651.799V88.1041H606.41V110.315H655.651V131.523H580.284Z" fill="#232559"/>
<path d="M730.438 55.8698C730.086 52.0009 728.52 48.9938 725.741 46.8484C722.996 44.6678 719.073 43.5775 713.971 43.5775C710.593 43.5775 707.779 44.0171 705.527 44.8964C703.275 45.7757 701.586 46.9891 700.46 48.5366C699.334 50.049 698.754 51.7899 698.718 53.7595C698.648 55.3774 698.965 56.8018 699.668 58.0328C700.407 59.2638 701.463 60.3541 702.835 61.3037C704.242 62.2182 705.931 63.0271 707.902 63.7305C709.872 64.4339 712.089 65.0494 714.552 65.577L723.841 67.6873C729.189 68.8479 733.904 70.3954 737.985 72.3299C742.102 74.2643 745.55 76.568 748.33 79.241C751.145 81.914 753.273 84.9914 754.716 88.4734C756.158 91.9553 756.897 95.8593 756.933 100.185C756.897 107.009 755.173 112.865 751.76 117.753C748.347 122.642 743.439 126.388 737.035 128.99C730.667 131.593 722.979 132.894 713.971 132.894C704.929 132.894 697.047 131.54 690.327 128.832C683.606 126.124 678.381 122.009 674.652 116.487C670.922 110.965 669.004 103.984 668.899 95.5428H693.916C694.127 99.0247 695.059 101.926 696.713 104.248C698.366 106.569 700.636 108.327 703.521 109.523C706.442 110.719 709.819 111.317 713.655 111.317C717.173 111.317 720.164 110.842 722.627 109.893C725.125 108.943 727.043 107.624 728.38 105.936C729.717 104.248 730.403 102.313 730.438 100.133C730.403 98.0927 729.769 96.3517 728.538 94.9097C727.306 93.4325 725.406 92.1663 722.838 91.1112C720.305 90.0209 717.067 89.0185 713.127 88.1041L701.832 85.4663C692.473 83.3208 685.102 79.8565 679.718 75.0732C674.335 70.2548 671.661 63.7481 671.696 55.5532C671.661 48.8707 673.455 43.0147 677.079 37.9853C680.703 32.9558 685.717 29.0342 692.121 26.2205C698.525 23.4068 705.826 22 714.024 22C722.398 22 729.664 23.4244 735.821 26.2733C742.014 29.087 746.817 33.0437 750.23 38.1435C753.643 43.2433 755.384 49.1521 755.455 55.8698H730.438Z" fill="#232559"/>
<path d="M828.552 55.8698C828.2 52.0009 826.635 48.9938 823.855 46.8484C821.111 44.6678 817.187 43.5775 812.086 43.5775C808.708 43.5775 805.893 44.0171 803.641 44.8964C801.389 45.7757 799.7 46.9891 798.574 48.5366C797.448 50.049 796.868 51.7899 796.833 53.7595C796.762 55.3774 797.079 56.8018 797.783 58.0328C798.522 59.2638 799.577 60.3541 800.949 61.3037C802.357 62.2182 804.046 63.0271 806.016 63.7305C807.986 64.4339 810.203 65.0494 812.666 65.577L821.955 67.6873C827.303 68.8479 832.018 70.3954 836.1 72.3299C840.216 74.2643 843.664 76.568 846.444 79.241C849.259 81.914 851.388 84.9914 852.83 88.4734C854.273 91.9553 855.012 95.8593 855.047 100.185C855.012 107.009 853.288 112.865 849.875 117.753C846.462 122.642 841.553 126.388 835.15 128.99C828.781 131.593 821.093 132.894 812.086 132.894C803.043 132.894 795.161 131.54 788.441 128.832C781.721 126.124 776.496 122.009 772.766 116.487C769.036 110.965 767.119 103.984 767.013 95.5428H792.03C792.241 99.0247 793.173 101.926 794.827 104.248C796.481 106.569 798.75 108.327 801.636 109.523C804.556 110.719 807.934 111.317 811.769 111.317C815.287 111.317 818.278 110.842 820.741 109.893C823.239 108.943 825.157 107.624 826.494 105.936C827.831 104.248 828.517 102.313 828.552 100.133C828.517 98.0927 827.884 96.3517 826.652 94.9097C825.421 93.4325 823.521 92.1663 820.952 91.1112C818.419 90.0209 815.182 89.0185 811.241 88.1041L799.947 85.4663C790.587 83.3208 783.216 79.8565 777.833 75.0732C772.449 70.2548 769.775 63.7481 769.81 55.5532C769.775 48.8707 771.57 43.0147 775.194 37.9853C778.818 32.9558 783.832 29.0342 790.235 26.2205C796.639 23.4068 803.94 22 812.138 22C820.512 22 827.778 23.4244 833.936 26.2733C840.128 29.087 844.931 33.0437 848.344 38.1435C851.757 43.2433 853.499 49.1521 853.569 55.8698H828.552Z" fill="#232559"/>
<path d="M933.633 23.4772H959.706V93.1687C959.706 101.223 957.788 108.24 953.953 114.219C950.118 120.163 944.77 124.77 937.908 128.041C931.047 131.277 923.078 132.894 914 132.894C904.817 132.894 896.794 131.277 889.933 128.041C883.072 124.77 877.741 120.163 873.941 114.219C870.141 108.24 868.241 101.223 868.241 93.1687V23.4772H894.367V90.9002C894.367 94.6283 895.176 97.952 896.794 100.871C898.448 103.79 900.753 106.077 903.708 107.73C906.664 109.383 910.094 110.209 914 110.209C917.906 110.209 921.318 109.383 924.239 107.73C927.194 106.077 929.499 103.79 931.153 100.871C932.807 97.952 933.633 94.6283 933.633 90.9002V23.4772Z" fill="#232559"/>
<path d="M1034.51 55.8698C1034.15 52.0009 1032.59 48.9938 1029.81 46.8484C1027.06 44.6678 1023.14 43.5775 1018.04 43.5775C1014.66 43.5775 1011.85 44.0171 1009.59 44.8964C1007.34 45.7757 1005.65 46.9891 1004.53 48.5366C1003.4 50.049 1002.82 51.7899 1002.79 53.7595C1002.72 55.3774 1003.03 56.8018 1003.74 58.0328C1004.47 59.2638 1005.53 60.3541 1006.9 61.3037C1008.31 62.2182 1010 63.0271 1011.97 63.7305C1013.94 64.4339 1016.16 65.0494 1018.62 65.577L1027.91 67.6873C1033.26 68.8479 1037.97 70.3954 1042.05 72.3299C1046.17 74.2643 1049.62 76.568 1052.4 79.241C1055.21 81.914 1057.34 84.9914 1058.78 88.4734C1060.23 91.9553 1060.96 95.8593 1061 100.185C1060.96 107.009 1059.24 112.865 1055.83 117.753C1052.41 122.642 1047.51 126.388 1041.1 128.99C1034.73 131.593 1027.05 132.894 1018.04 132.894C1009 132.894 1001.11 131.54 994.394 128.832C987.674 126.124 982.449 122.009 978.719 116.487C974.989 110.965 973.072 103.984 972.966 95.5428H997.983C998.194 99.0247 999.127 101.926 1000.78 104.248C1002.43 106.569 1004.7 108.327 1007.59 109.523C1010.51 110.719 1013.89 111.317 1017.72 111.317C1021.24 111.317 1024.23 110.842 1026.69 109.893C1029.19 108.943 1031.11 107.624 1032.45 105.936C1033.78 104.248 1034.47 102.313 1034.51 100.133C1034.47 98.0927 1033.84 96.3517 1032.61 94.9097C1031.37 93.4325 1029.47 92.1663 1026.91 91.1112C1024.37 90.0209 1021.13 89.0185 1017.19 88.1041L1005.9 85.4663C996.54 83.3208 989.169 79.8565 983.786 75.0732C978.402 70.2548 975.728 63.7481 975.763 55.5532C975.728 48.8707 977.523 43.0147 981.147 37.9853C984.771 32.9558 989.785 29.0342 996.189 26.2205C1002.59 23.4068 1009.89 22 1018.09 22C1026.47 22 1033.73 23.4244 1039.89 26.2733C1046.08 29.087 1050.88 33.0437 1054.3 38.1435C1057.71 43.2433 1059.45 49.1521 1059.52 55.8698H1034.51Z" fill="#232559"/>
<path d="M14.7017 50.2304V43.0546C14.7017 19.2741 34.0071 0 57.8263 0H115.326C139.145 0 158.45 19.2741 158.45 43.0546V50.2304C142.573 50.2304 129.701 63.0822 129.701 78.9334V100.461H43.4514V78.9334C43.4514 63.0822 30.5787 50.2304 14.7017 50.2304Z" fill="#F2531B"/>
<path d="M155.561 63.0865C148.503 64.2324 143.613 70.843 143.613 77.9836V105.866C143.613 109.819 140.396 113.028 136.432 113.028H35.9031C31.9394 113.028 28.7225 109.819 28.7225 105.866V77.9836C28.7225 70.8502 23.8325 64.2324 16.7739 63.0865C7.77662 61.6254 0 68.5153 0 77.2172V105.866C0 117.583 5.64397 127.982 14.3613 134.514V148.838C14.3613 152.791 17.5782 156 21.5419 156C25.5056 156 28.7225 152.791 28.7225 148.838V140.96C31.0419 141.432 33.4474 141.676 35.9031 141.676H136.432C138.888 141.676 141.293 141.432 143.613 140.96V148.838C143.613 152.791 146.829 156 150.793 156C154.757 156 157.974 152.791 157.974 148.838V134.514C166.691 127.982 172.335 117.583 172.335 105.866V77.2172C172.335 68.5153 164.558 61.6326 155.561 63.0865Z" fill="#232559"/>
</svg>
